<?xml version="1.0" encoding="UTF-8" ?>
<!DOCTYPE svg PUBLIC "-//W3C//DTD SVG 1.1//EN" "http://www.w3.org/Graphics/SVG/1.1/DTD/svg11.dtd">
<svg width="699pt" height="699pt" viewBox="0 0 699 699" version="1.1" xmlns="http://www.w3.org/2000/svg">
<g id="#1b1b1b9c">
<path fill="#1b1b1b" opacity="0.61" d=" M 353.52 0.00 L 373.50 0.00 L 375.16 0.62 C 367.40 1.12 359.59 1.10 351.83 0.66 L 353.52 0.00 Z" />
</g>
<g id="#17171793">
<path fill="#171717" opacity="0.58" d=" M 336.37 1.94 C 339.71 1.27 343.11 0.95 346.52 0.98 C 343.17 1.65 339.77 1.98 336.37 1.94 Z" />
<path fill="#171717" opacity="0.58" d=" M 261.91 490.24 C 263.84 491.19 263.58 495.09 262.68 496.93 C 261.91 494.78 261.60 492.50 261.91 490.24 Z" />
<path fill="#171717" opacity="0.58" d=" M 465.32 496.94 C 464.40 495.10 464.16 491.21 466.09 490.26 C 466.39 492.52 466.09 494.79 465.32 496.94 Z" />
</g>
<g id="#000000ff">
<path fill="#000000" opacity="1.00" d=" M 346.52 0.98 C 348.28 0.86 350.05 0.77 351.83 0.66 C 359.59 1.10 367.40 1.12 375.16 0.62 C 377.55 0.77 379.95 0.88 382.34 1.05 C 385.44 1.67 388.58 1.93 391.74 1.91 C 392.04 1.94 392.63 2.01 392.93 2.04 C 395.10 3.39 397.67 3.61 400.11 2.93 C 402.33 3.30 404.57 3.66 406.80 4.01 C 408.32 5.31 410.38 5.60 412.26 4.97 C 418.40 6.17 424.50 7.58 430.58 9.04 C 432.32 10.44 434.52 11.00 436.74 10.78 C 471.07 20.69 503.98 37.02 530.75 60.91 C 532.53 62.73 534.39 64.48 536.34 66.11 C 539.36 68.99 542.41 72.00 544.14 75.88 C 543.76 78.29 543.74 80.73 544.05 83.15 C 542.63 86.16 540.50 89.01 537.30 90.24 C 532.73 92.34 527.20 90.80 523.84 87.23 C 496.05 58.65 458.92 40.56 420.54 31.09 C 417.54 30.14 414.47 29.50 411.37 29.05 C 404.72 27.66 398.02 26.60 391.28 25.80 C 389.27 24.72 386.98 24.53 384.79 25.11 C 384.23 25.06 383.10 24.96 382.54 24.91 C 378.37 24.35 374.19 23.93 369.98 23.98 C 361.58 24.09 353.12 23.54 344.79 24.94 L 344.39 24.98 C 339.38 25.14 334.42 25.86 329.53 26.88 C 327.37 27.25 325.24 27.70 323.11 28.17 C 320.70 27.77 318.21 27.51 315.84 28.25 C 314.97 27.84 314.10 27.42 313.23 27.01 C 313.04 24.73 311.29 22.98 309.02 22.77 C 308.60 21.89 308.19 21.02 307.77 20.15 C 308.39 18.07 308.36 15.83 307.63 13.78 C 309.03 10.56 311.12 7.39 314.50 6.02 C 317.15 5.36 319.82 4.72 322.47 4.05 L 322.83 3.98 C 324.69 4.56 326.70 4.26 328.27 3.06 C 330.97 2.69 333.66 2.29 336.37 1.94 C 339.77 1.98 343.17 1.65 346.52 0.98 Z" />
<path fill="#000000" opacity="1.00" d=" M 200.23 35.23 C 203.23 18.76 217.95 5.56 234.29 2.83 C 239.32 2.38 244.38 2.59 249.40 3.06 C 262.50 5.33 274.10 14.29 279.86 26.24 C 281.15 29.11 282.71 32.03 282.77 35.25 C 282.66 36.87 283.04 38.46 283.75 39.92 L 283.96 40.49 C 284.12 43.52 284.12 46.56 284.02 49.59 C 283.60 53.46 282.44 57.20 281.27 60.90 C 291.46 68.66 302.01 75.92 311.95 84.00 C 321.40 91.63 331.24 98.75 340.58 106.52 C 345.93 103.17 351.97 100.87 358.23 99.98 C 362.40 99.80 366.58 99.79 370.75 99.96 C 390.03 102.05 406.38 118.54 409.08 137.62 C 409.29 142.24 409.30 146.88 409.06 151.51 C 406.64 168.90 392.98 183.73 376.06 188.16 C 376.02 226.08 376.04 264.01 376.06 301.93 C 376.16 309.78 375.84 317.64 376.26 325.49 L 376.27 325.66 C 376.32 325.62 376.40 325.53 376.44 325.49 C 387.20 314.36 397.31 302.60 407.96 291.37 C 409.80 289.57 411.55 287.68 413.16 285.68 C 414.69 283.83 416.31 282.04 418.02 280.36 C 420.19 278.26 422.24 276.04 424.12 273.68 C 425.64 271.84 427.25 270.08 428.95 268.41 C 431.17 266.31 433.25 264.06 435.14 261.65 C 436.35 260.16 437.65 258.74 439.01 257.39 C 441.54 254.98 443.91 252.41 446.09 249.68 C 446.92 248.69 447.78 247.72 448.65 246.76 C 445.49 241.18 442.61 235.24 441.96 228.77 C 441.86 225.23 441.86 221.68 441.92 218.14 C 443.46 205.17 451.56 193.22 463.06 187.02 C 475.83 179.81 492.34 180.27 504.83 187.88 C 505.47 187.29 506.12 186.70 506.77 186.12 C 512.84 180.64 518.71 174.94 524.27 168.94 C 526.47 166.64 528.79 164.48 531.02 162.20 C 529.21 158.19 527.57 154.05 526.97 149.66 C 526.82 145.97 526.80 142.27 526.95 138.58 C 527.84 131.65 530.68 125.00 534.94 119.48 C 536.97 117.16 539.13 114.96 541.42 112.90 C 546.35 108.97 552.23 106.17 558.42 104.98 C 563.70 104.50 569.03 104.51 574.31 105.02 C 589.44 107.85 602.11 120.51 605.03 135.61 C 605.76 141.21 605.60 146.88 604.93 152.48 C 604.05 157.06 602.15 161.44 599.48 165.26 C 606.52 180.45 611.33 196.75 612.97 213.44 C 613.06 216.54 613.34 219.63 613.87 222.69 C 613.91 223.10 614.00 223.91 614.04 224.32 C 614.09 232.45 614.07 240.57 614.05 248.69 C 614.00 249.11 613.92 249.94 613.88 250.35 C 613.31 253.74 613.07 257.18 612.88 260.61 L 612.73 261.18 C 611.90 263.26 611.54 265.49 611.83 267.74 C 611.96 271.24 611.02 274.67 610.49 278.11 C 602.62 319.95 584.88 360.09 558.27 393.40 C 552.08 400.97 545.56 408.32 538.32 414.91 C 535.99 416.83 533.75 418.86 531.58 420.97 C 527.17 424.69 522.75 428.58 518.00 431.81 C 516.96 432.04 516.19 432.64 515.69 433.60 C 515.39 433.89 514.77 434.47 514.46 434.77 C 512.17 436.24 510.14 438.11 508.70 440.45 C 497.44 454.62 492.67 472.50 489.63 490.01 C 489.06 491.83 488.79 493.73 488.89 495.65 L 488.87 496.53 C 487.94 503.47 487.90 510.47 488.01 517.47 C 487.63 518.83 487.05 520.13 486.52 521.45 L 485.78 521.69 C 484.19 521.98 483.32 523.41 482.62 524.71 C 482.36 525.03 481.84 525.67 481.57 525.99 C 478.20 526.50 474.76 526.57 471.40 526.00 C 468.48 524.43 466.05 521.85 465.02 518.67 C 464.44 511.94 465.00 505.21 464.99 498.48 C 465.07 498.09 465.24 497.32 465.32 496.94 C 466.09 494.79 466.39 492.52 466.09 490.26 C 466.08 489.86 466.06 489.05 466.05 488.65 C 466.75 484.64 467.47 480.65 468.03 476.63 C 470.80 462.78 475.20 448.68 484.26 437.59 C 485.49 436.52 486.54 435.24 487.19 433.73 C 490.24 428.89 494.09 424.56 497.89 420.29 C 499.74 418.44 501.63 416.63 503.53 414.82 C 505.31 413.19 507.14 411.58 509.08 410.12 C 510.27 409.31 511.32 408.32 512.25 407.22 C 513.52 405.80 514.95 404.53 516.46 403.36 C 522.03 399.18 526.87 394.08 531.19 388.63 C 555.33 361.90 572.47 329.23 582.27 294.66 C 583.47 291.10 584.37 287.45 585.10 283.76 L 585.14 283.56 C 585.90 280.59 586.55 277.59 586.98 274.55 C 587.35 272.03 587.68 269.49 588.38 267.05 C 588.90 265.52 589.17 263.92 589.11 262.31 C 589.13 261.92 589.17 261.15 589.19 260.76 C 589.63 257.69 589.94 254.61 590.07 251.52 C 590.10 251.31 590.14 250.89 590.16 250.69 C 591.47 241.38 591.47 231.80 590.15 222.50 L 590.12 222.19 C 589.90 219.23 589.67 216.27 589.11 213.36 C 587.40 202.31 584.82 191.37 580.44 181.06 C 577.80 181.80 575.16 182.64 572.44 183.02 C 568.41 183.25 564.38 183.26 560.36 183.06 C 556.06 182.54 551.97 180.99 548.06 179.19 C 547.08 180.11 546.13 181.04 545.14 181.94 C 539.43 187.12 533.87 192.48 528.64 198.14 C 526.04 200.86 523.26 203.41 520.63 206.09 C 522.23 210.07 523.60 214.19 524.01 218.48 C 524.11 221.58 524.10 224.69 524.05 227.79 C 522.25 245.74 507.49 261.40 489.61 264.02 C 485.21 264.28 480.80 264.28 476.41 264.04 C 473.24 263.78 470.32 262.26 467.22 261.85 C 463.97 264.91 461.25 268.48 458.08 271.61 C 456.27 273.42 454.52 275.29 452.91 277.27 C 451.35 279.12 449.72 280.91 448.01 282.61 C 445.83 284.71 443.77 286.93 441.90 289.30 C 440.35 291.16 438.72 292.94 437.00 294.64 C 434.80 296.73 432.74 298.96 430.87 301.35 C 429.64 302.84 428.34 304.26 426.99 305.62 C 424.82 307.72 422.77 309.93 420.87 312.28 C 419.31 314.13 417.68 315.91 415.98 317.63 C 413.85 319.72 411.82 321.92 409.93 324.23 C 408.35 326.10 406.70 327.89 404.99 329.63 C 402.84 331.74 400.80 333.96 398.89 336.29 C 391.54 344.48 384.05 352.55 376.61 360.67 C 375.33 365.87 376.27 371.28 375.95 376.57 C 374.92 395.12 374.89 413.71 375.04 432.28 C 375.03 433.37 375.00 434.46 374.95 435.56 C 373.98 459.44 373.96 483.35 373.98 507.25 C 373.96 507.55 373.93 508.16 373.91 508.46 C 373.49 512.08 373.18 515.71 372.87 519.34 C 371.39 522.56 368.43 525.70 364.75 526.02 C 362.90 525.95 361.05 525.94 359.22 525.97 C 355.55 525.77 352.83 522.62 351.12 519.64 C 350.42 515.78 350.29 511.85 350.48 507.95 C 351.29 482.29 350.53 456.61 351.60 430.96 C 351.95 407.80 352.19 384.62 351.92 361.46 L 351.56 360.97 C 344.16 352.65 336.48 344.57 329.07 336.25 C 327.18 333.95 325.16 331.75 323.04 329.66 C 321.32 327.92 319.66 326.12 318.09 324.25 C 316.18 321.92 314.14 319.71 311.99 317.60 C 310.28 315.87 308.64 314.08 307.08 312.23 C 305.19 309.89 303.14 307.69 300.99 305.59 C 299.65 304.24 298.36 302.84 297.15 301.38 C 295.28 298.99 293.22 296.75 291.02 294.66 C 289.30 292.97 287.67 291.19 286.13 289.33 C 284.24 286.95 282.17 284.71 279.99 282.61 C 278.27 280.90 276.63 279.10 275.07 277.25 C 273.45 275.27 271.71 273.40 269.91 271.59 C 265.91 267.49 262.19 263.12 258.32 258.90 C 255.06 259.96 251.95 261.52 248.53 262.01 C 243.45 262.35 238.35 262.52 233.26 262.22 C 219.06 260.25 206.50 250.08 201.09 236.87 C 200.11 234.35 198.90 231.77 199.08 229.00 C 199.25 227.64 198.94 226.31 198.37 225.09 C 197.51 222.19 197.60 218.96 198.31 216.04 C 198.92 214.50 199.29 212.88 199.25 211.22 L 199.33 210.19 C 200.04 208.42 200.70 206.63 201.09 204.77 C 202.22 200.92 204.54 197.50 207.00 194.38 C 209.40 191.89 211.87 189.46 214.38 187.08 C 219.64 182.93 226.00 180.15 232.60 179.00 C 237.53 178.65 242.48 178.62 247.41 178.99 C 265.04 181.67 279.57 196.93 281.99 214.52 C 282.14 218.52 282.15 222.53 281.99 226.54 C 281.18 232.45 278.96 238.10 275.88 243.19 C 277.94 245.32 280.03 247.43 281.94 249.70 C 284.09 252.42 286.45 254.98 288.96 257.37 C 290.34 258.73 291.65 260.17 292.89 261.68 C 294.76 264.08 296.84 266.31 299.06 268.41 C 300.75 270.08 302.36 271.84 303.88 273.68 C 305.75 276.04 307.80 278.26 309.98 280.35 C 311.69 282.04 313.31 283.83 314.85 285.69 C 316.45 287.68 318.18 289.56 320.01 291.34 C 330.67 302.58 340.79 314.34 351.55 325.50 C 351.60 325.54 351.68 325.62 351.73 325.66 L 351.74 325.49 C 352.23 279.61 351.81 233.71 351.97 187.83 C 335.24 183.02 322.04 167.88 319.96 150.55 C 319.80 146.53 319.80 142.50 319.99 138.48 C 320.65 133.40 322.38 128.54 324.54 123.92 C 305.49 109.09 286.18 94.55 268.04 78.60 C 262.53 82.67 256.23 85.79 249.45 86.98 C 244.14 87.44 238.79 87.42 233.48 86.99 C 225.93 85.51 218.65 82.07 213.05 76.76 C 211.84 75.44 210.58 74.15 209.29 72.92 C 203.35 66.54 200.06 58.02 198.98 49.45 C 198.89 46.48 198.89 43.51 199.06 40.54 L 199.26 39.97 C 199.95 38.48 200.31 36.87 200.23 35.23 M 236.42 26.87 C 229.45 28.68 223.58 35.01 222.97 42.26 C 221.06 42.68 221.10 47.32 223.02 47.75 C 223.60 55.07 229.57 61.37 236.55 63.22 C 239.76 64.29 243.20 64.28 246.41 63.24 C 253.50 61.40 259.56 55.21 259.98 47.72 C 261.90 47.34 261.93 42.67 260.03 42.25 C 259.43 35.21 253.87 29.15 247.27 27.00 C 243.81 25.51 239.94 25.76 236.42 26.87 M 359.54 123.90 C 351.09 125.86 344.42 133.46 343.54 142.09 C 342.08 152.36 349.39 162.88 359.47 165.19 C 362.68 166.31 366.16 166.26 369.41 165.30 C 371.98 164.66 374.47 163.58 376.65 162.06 C 378.93 160.79 380.79 158.92 382.07 156.65 C 383.44 154.79 384.41 152.63 385.05 150.42 C 386.32 146.94 386.32 143.17 385.31 139.63 C 384.41 136.72 383.35 133.57 381.00 131.50 C 381.52 129.48 378.52 126.68 376.53 127.28 C 376.05 126.83 375.09 125.94 374.61 125.49 C 374.59 125.47 374.56 125.45 374.54 125.43 L 373.99 125.06 C 369.83 122.22 364.20 122.58 359.54 123.90 M 551.04 140.29 C 549.14 140.98 549.09 145.96 550.88 146.74 C 550.86 148.85 551.64 151.35 553.39 152.64 C 553.01 154.46 555.44 156.96 557.27 156.64 L 557.53 157.35 C 558.83 157.95 560.10 158.64 561.47 159.12 C 564.67 160.40 568.25 160.35 571.44 159.01 C 576.93 157.13 580.93 152.18 582.14 146.56 C 583.55 143.61 582.18 140.42 581.11 137.61 C 578.55 132.18 573.07 128.10 566.97 127.92 C 559.71 127.46 551.86 132.82 551.04 140.29 M 234.36 202.90 C 228.11 205.01 222.69 210.64 222.02 217.34 C 220.06 218.08 220.06 223.01 221.97 223.75 C 223.02 233.56 233.54 240.72 243.11 238.91 C 250.15 237.89 256.17 232.40 258.02 225.55 C 259.39 222.35 259.33 218.75 258.00 215.55 C 256.24 209.42 251.21 204.32 244.98 202.78 L 245.87 202.82 C 242.11 201.65 238.08 201.63 234.36 202.90 M 474.80 207.74 C 468.30 211.06 464.47 218.75 465.69 225.94 C 466.62 232.73 472.03 238.46 478.58 240.23 C 481.46 241.28 484.57 241.22 487.44 240.15 C 493.96 238.41 499.49 232.57 500.05 225.73 C 501.97 225.34 501.95 220.66 500.00 220.32 C 498.78 209.11 484.52 202.21 474.80 207.74 Z" />
<path fill="#000000" opacity="1.00" d=" M 176.40 81.88 C 182.34 75.86 194.32 78.83 195.96 87.33 C 195.95 89.46 195.96 91.60 195.97 93.73 C 195.85 94.75 195.56 95.71 195.09 96.63 C 192.01 99.81 188.61 102.70 185.90 106.23 C 169.42 127.09 157.46 151.30 148.95 176.40 C 148.01 178.95 147.37 181.59 146.94 184.28 C 146.34 188.99 145.44 194.34 141.05 197.06 C 135.42 201.24 127.16 198.65 123.84 192.79 C 123.02 189.77 122.84 186.62 122.99 183.51 L 123.25 182.97 C 123.93 181.88 124.26 180.62 124.17 179.34 C 126.22 166.79 131.38 154.94 136.37 143.30 C 145.34 123.81 155.78 104.70 169.86 88.40 C 172.01 86.19 174.17 84.01 176.40 81.88 Z" />
<path fill="#000000" opacity="1.00" d=" M 84.34 262.99 C 80.91 242.17 96.73 220.85 117.31 217.02 C 123.07 216.52 128.88 216.50 134.64 217.07 C 140.81 218.36 146.74 221.06 151.66 225.00 C 154.19 227.40 156.64 229.88 159.04 232.40 C 163.02 237.30 165.90 243.17 166.97 249.41 C 167.71 255.38 167.69 261.43 166.87 267.40 L 166.69 267.86 C 165.90 269.58 165.29 271.37 164.92 273.23 C 161.87 282.68 154.51 290.34 145.96 295.17 C 155.59 329.59 172.85 362.01 196.80 388.63 C 200.78 393.73 205.30 398.46 210.52 402.32 C 211.93 403.41 213.24 404.63 214.51 405.89 C 216.35 407.77 218.30 409.53 220.38 411.13 C 221.53 412.06 222.70 413.02 223.59 414.23 C 224.67 415.94 226.13 417.38 227.99 418.25 C 231.85 421.49 235.14 425.57 237.83 429.83 C 238.49 431.32 239.56 432.57 240.83 433.60 C 251.36 445.59 257.03 461.10 259.96 476.61 C 260.53 480.62 261.24 484.60 261.94 488.59 C 261.93 489.00 261.92 489.83 261.91 490.24 C 261.60 492.50 261.91 494.78 262.68 496.93 C 262.77 497.33 262.93 498.14 263.01 498.55 C 262.99 505.27 263.57 512.00 262.97 518.72 C 261.93 521.85 259.54 524.40 256.67 525.97 C 253.26 526.58 249.78 526.51 246.37 525.96 C 246.13 525.66 245.65 525.05 245.40 524.75 C 244.68 523.44 243.81 522.00 242.22 521.69 L 241.47 521.43 C 240.93 520.11 240.36 518.81 239.99 517.45 C 240.10 510.45 240.06 503.45 239.13 496.51 L 239.10 495.65 C 239.19 493.73 238.94 491.83 238.37 490.01 C 235.32 472.50 230.56 454.61 219.32 440.43 C 217.86 438.13 215.86 436.29 213.61 434.79 C 213.29 434.49 212.65 433.89 212.33 433.59 C 211.81 432.64 211.04 432.05 210.01 431.80 C 205.26 428.56 200.84 424.68 196.41 420.98 C 194.55 419.23 192.65 417.52 190.70 415.88 C 157.52 384.99 134.84 343.81 122.68 300.37 C 114.02 299.07 105.38 296.14 98.72 290.26 C 92.07 284.46 86.59 276.57 85.22 267.75 C 85.26 266.11 84.90 264.51 84.34 262.99 M 108.00 255.29 C 106.07 255.67 106.03 260.35 107.95 260.75 C 108.59 268.51 115.47 275.43 123.25 276.03 C 123.69 277.91 128.36 277.91 128.73 276.01 C 138.61 275.24 145.94 264.47 143.84 254.93 C 142.52 246.83 135.19 240.23 126.97 239.94 C 118.00 239.24 108.90 246.21 108.00 255.29 Z" />
<path fill="#000000" opacity="1.00" d=" M 231.89 552.55 C 232.95 547.71 236.83 543.70 241.71 542.69 C 250.92 543.05 260.15 543.10 269.37 542.93 C 270.80 542.92 272.23 542.98 273.66 543.06 C 297.82 543.98 322.01 544.10 346.19 543.96 C 347.33 543.96 348.48 544.00 349.63 544.07 C 373.45 544.96 397.30 545.12 421.13 544.95 C 422.64 544.94 424.14 544.99 425.66 545.10 C 444.22 546.08 462.83 545.98 481.42 546.01 C 485.61 546.62 489.26 549.67 490.86 553.56 C 492.36 561.49 490.83 569.49 491.03 577.47 C 490.13 581.32 487.09 584.45 483.46 585.89 C 476.97 586.40 470.46 586.07 463.97 586.03 C 442.98 585.85 421.98 586.33 401.00 585.53 C 373.68 585.08 346.35 584.91 319.02 584.97 C 293.51 584.44 267.98 583.91 242.46 584.07 C 240.73 583.89 239.14 583.13 237.54 582.52 L 237.28 581.77 C 236.93 580.24 235.73 579.05 234.23 578.68 L 233.46 578.39 C 232.91 576.86 232.21 575.36 231.95 573.76 C 232.06 566.69 231.79 559.62 231.89 552.55 Z" />
<path fill="#000000" opacity="1.00" d=" M 237.37 601.91 C 244.45 600.33 251.75 601.23 258.93 601.08 C 286.57 602.20 314.24 601.93 341.90 602.07 C 361.91 602.84 381.95 603.04 401.98 603.00 C 427.79 602.79 453.57 604.34 479.38 603.95 C 483.22 604.89 486.42 607.78 487.92 611.42 C 488.69 617.58 487.90 623.77 488.11 629.96 C 487.97 631.88 487.20 633.68 486.52 635.47 L 485.74 635.73 C 484.23 636.04 483.04 637.24 482.71 638.75 L 482.44 639.52 C 481.11 640.01 479.81 640.62 478.42 640.95 C 467.61 640.80 456.74 641.57 445.99 640.26 C 434.34 641.08 422.65 640.20 410.98 640.36 C 386.38 640.05 361.79 639.94 337.19 639.97 C 324.79 640.09 312.41 639.11 300.01 639.10 C 280.19 638.92 260.36 638.98 240.53 639.05 C 238.62 638.84 236.69 638.13 235.24 636.86 C 234.27 635.73 233.25 634.66 232.18 633.64 C 231.67 633.01 231.26 632.32 230.96 631.58 C 230.54 624.17 230.98 616.75 231.03 609.34 C 231.96 606.09 234.49 603.54 237.37 601.91 Z" />
<path fill="#000000" opacity="1.00" d=" M 233.30 657.22 C 235.97 654.66 239.80 653.92 243.38 654.09 C 250.23 654.87 257.14 654.48 264.02 654.71 C 277.78 655.13 291.56 655.04 305.33 654.94 C 306.77 654.96 308.22 655.01 309.67 655.06 C 333.21 655.97 356.79 656.13 380.35 655.93 C 381.78 655.95 383.22 655.99 384.66 656.04 C 408.86 657.00 433.10 657.10 457.32 656.96 C 458.36 656.98 459.41 657.03 460.47 657.08 C 467.15 658.15 473.92 658.10 480.67 657.89 C 484.95 659.23 488.12 663.08 489.12 667.40 C 489.27 673.18 488.85 678.96 489.22 684.73 C 488.96 689.12 487.27 693.62 483.51 696.17 C 476.98 699.20 469.63 697.60 462.71 697.98 C 461.60 697.97 460.50 697.96 459.40 697.94 C 447.95 697.28 436.48 697.53 425.03 697.29 C 403.94 696.91 382.85 696.95 361.77 697.03 C 360.64 697.00 359.52 696.97 358.41 696.95 C 347.27 696.28 336.10 696.52 324.95 696.29 C 303.53 695.91 282.11 695.95 260.69 696.04 C 259.62 696.00 258.55 695.97 257.49 695.93 C 250.90 694.88 244.23 694.97 237.58 695.01 C 236.78 694.72 235.99 694.40 235.22 694.05 C 235.04 691.74 233.26 689.97 230.97 689.78 C 230.63 689.01 230.32 688.23 230.05 687.45 C 229.76 681.15 229.96 674.83 229.09 668.58 C 228.94 664.44 230.12 660.05 233.30 657.22 Z" />
</g>
<g id="#1818188f">
<path fill="#181818" opacity="0.56" d=" M 382.34 1.05 C 385.49 1.01 388.64 1.29 391.74 1.91 C 388.58 1.93 385.44 1.67 382.34 1.05 Z" />
</g>
<g id="#1616169a">
<path fill="#161616" opacity="0.60" d=" M 233.26 2.90 C 238.54 1.66 244.18 1.45 249.40 3.06 C 244.38 2.59 239.32 2.38 234.29 2.83 L 233.26 2.90 Z" />
</g>
<g id="#16161681">
<path fill="#161616" opacity="0.51" d=" M 392.93 2.04 C 395.36 1.42 397.92 1.63 400.11 2.93 C 397.67 3.61 395.10 3.39 392.93 2.04 Z" />
</g>
<g id="#1a1a1a7e">
<path fill="#1a1a1a" opacity="0.49" d=" M 322.83 3.98 C 324.37 2.73 326.40 2.43 328.27 3.06 C 326.70 4.26 324.69 4.56 322.83 3.98 Z" />
</g>
<g id="#1717179b">
<path fill="#171717" opacity="0.61" d=" M 314.50 6.02 C 317.00 4.83 319.75 4.44 322.47 4.05 C 319.82 4.72 317.15 5.36 314.50 6.02 Z" />
</g>
<g id="#1818188a">
<path fill="#181818" opacity="0.54" d=" M 406.80 4.01 C 408.68 3.47 410.68 3.79 412.26 4.97 C 410.38 5.60 408.32 5.31 406.80 4.01 Z" />
</g>
<g id="#13131370">
<path fill="#131313" opacity="0.44" d=" M 430.58 9.04 C 432.82 8.54 435.08 9.20 436.74 10.78 C 434.52 11.00 432.32 10.44 430.58 9.04 Z" />
</g>
<g id="#17171777">
<path fill="#171717" opacity="0.47" d=" M 307.77 20.15 C 306.53 18.23 306.38 15.74 307.63 13.78 C 308.36 15.83 308.39 18.07 307.77 20.15 Z" />
</g>
<g id="#121212c0">
<path fill="#121212" opacity="0.75" d=" M 309.02 22.77 C 311.29 22.98 313.04 24.73 313.23 27.01 C 311.25 26.31 309.72 24.75 309.02 22.77 Z" />
</g>
<g id="#19191962">
<path fill="#191919" opacity="0.38" d=" M 344.79 24.94 C 353.12 23.54 361.58 24.09 369.98 23.98 C 374.19 23.93 378.37 24.35 382.54 24.91 C 378.04 25.03 373.54 24.90 369.06 24.60 C 360.96 24.07 352.89 25.20 344.79 24.94 Z" />
<path fill="#191919" opacity="0.38" d=" M 358.23 99.98 C 362.26 98.67 366.73 98.51 370.75 99.96 C 366.58 99.79 362.40 99.80 358.23 99.98 Z" />
</g>
<g id="#14141462">
<path fill="#141414" opacity="0.38" d=" M 329.53 26.88 C 334.42 25.86 339.38 25.14 344.39 24.98 C 339.48 25.98 334.50 26.41 329.53 26.88 Z" />
</g>
<g id="#1717176e">
<path fill="#171717" opacity="0.43" d=" M 384.79 25.11 C 386.98 24.53 389.27 24.72 391.28 25.80 C 389.10 26.60 386.72 26.41 384.79 25.11 Z" />
</g>
<g id="#14141478">
<path fill="#141414" opacity="0.47" d=" M 236.42 26.87 C 239.94 25.76 243.81 25.51 247.27 27.00 C 243.66 26.64 240.03 26.62 236.42 26.87 Z" />
</g>
<g id="#1717177d">
<path fill="#171717" opacity="0.49" d=" M 315.84 28.25 C 318.21 27.51 320.70 27.77 323.11 28.17 C 320.84 29.41 318.07 29.80 315.84 28.25 Z" />
</g>
<g id="#1414149c">
<path fill="#141414" opacity="0.61" d=" M 411.37 29.05 C 414.47 29.50 417.54 30.14 420.54 31.09 C 417.46 30.51 414.40 29.83 411.37 29.05 Z" />
</g>
<g id="#18181889">
<path fill="#181818" opacity="0.54" d=" M 199.26 39.97 C 198.13 38.75 198.34 35.46 200.23 35.23 C 200.31 36.87 199.95 38.48 199.26 39.97 Z" />
</g>
<g id="#1717178f">
<path fill="#171717" opacity="0.56" d=" M 282.77 35.25 C 284.67 35.39 284.85 38.72 283.75 39.92 C 283.04 38.46 282.66 36.87 282.77 35.25 Z" />
</g>
<g id="#16161626">
<path fill="#161616" opacity="0.15" d=" M 198.98 49.45 C 197.50 46.68 197.55 43.28 199.06 40.54 C 198.89 43.51 198.89 46.48 198.98 49.45 Z" />
</g>
<g id="#19191936">
<path fill="#191919" opacity="0.21" d=" M 283.96 40.49 C 285.45 43.32 285.45 46.74 284.02 49.59 C 284.12 46.56 284.12 43.52 283.96 40.49 Z" />
</g>
<g id="#1a1a1abc">
<path fill="#1a1a1a" opacity="0.74" d=" M 223.02 47.75 C 221.10 47.32 221.06 42.68 222.97 42.26 C 223.00 44.09 223.02 45.92 223.02 47.75 Z" />
</g>
<g id="#191919b5">
<path fill="#191919" opacity="0.71" d=" M 260.03 42.25 C 261.93 42.67 261.90 47.34 259.98 47.72 C 259.97 45.89 259.99 44.07 260.03 42.25 Z" />
</g>
<g id="#0e0e0ea9">
<path fill="#0e0e0e" opacity="0.66" d=" M 530.75 60.91 C 532.70 62.55 534.56 64.29 536.34 66.11 C 534.39 64.48 532.53 62.73 530.75 60.91 Z" />
</g>
<g id="#16161655">
<path fill="#161616" opacity="0.33" d=" M 236.55 63.22 C 239.83 63.36 243.13 63.36 246.41 63.24 C 243.20 64.28 239.76 64.29 236.55 63.22 Z" />
</g>
<g id="#0f0f0f3c">
<path fill="#0f0f0f" opacity="0.24" d=" M 209.29 72.92 C 210.58 74.15 211.84 75.44 213.05 76.76 C 210.99 77.91 208.06 74.96 209.29 72.92 Z" />
</g>
<g id="#21212162">
<path fill="#212121" opacity="0.38" d=" M 544.14 75.88 C 545.75 78.07 545.66 80.99 544.05 83.15 C 543.74 80.73 543.76 78.29 544.14 75.88 Z" />
</g>
<g id="#0e0e0e36">
<path fill="#0e0e0e" opacity="0.21" d=" M 169.86 88.40 C 171.40 85.66 173.66 83.41 176.40 81.88 C 174.17 84.01 172.01 86.19 169.86 88.40 Z" />
</g>
<g id="#1b1b1b6c">
<path fill="#1b1b1b" opacity="0.42" d=" M 195.96 87.33 C 197.91 88.09 197.92 92.91 195.97 93.73 C 195.96 91.60 195.95 89.46 195.96 87.33 Z" />
</g>
<g id="#1818188e">
<path fill="#181818" opacity="0.56" d=" M 233.48 86.99 C 238.79 87.42 244.14 87.44 249.45 86.98 C 244.29 88.54 238.64 88.46 233.48 86.99 Z" />
</g>
<g id="#0d0d0d5b">
<path fill="#0d0d0d" opacity="0.36" d=" M 185.90 106.23 C 188.61 102.70 192.01 99.81 195.09 96.63 C 192.68 100.40 189.11 103.18 185.90 106.23 Z" />
</g>
<g id="#17171794">
<path fill="#171717" opacity="0.58" d=" M 558.42 104.98 C 563.58 103.55 569.16 103.50 574.31 105.02 C 569.03 104.51 563.70 104.50 558.42 104.98 Z" />
</g>
<g id="#0f0f0f39">
<path fill="#0f0f0f" opacity="0.22" d=" M 534.94 119.48 C 536.34 116.64 538.62 114.37 541.42 112.90 C 539.13 114.96 536.97 117.16 534.94 119.48 Z" />
</g>
<g id="#1e1e1e8c">
<path fill="#1e1e1e" opacity="0.55" d=" M 359.54 123.90 C 364.20 122.58 369.83 122.22 373.99 125.06 C 369.30 123.75 364.38 123.35 359.54 123.90 Z" />
</g>
<g id="#27272790">
<path fill="#272727" opacity="0.56" d=" M 374.54 125.43 C 374.56 125.45 374.59 125.47 374.61 125.49 C 374.59 125.47 374.56 125.45 374.54 125.43 Z" />
</g>
<g id="#0f0f0f73">
<path fill="#0f0f0f" opacity="0.45" d=" M 376.53 127.28 C 378.52 126.68 381.52 129.48 381.00 131.50 C 379.30 130.33 377.81 128.90 376.53 127.28 Z" />
</g>
<g id="#171717a8">
<path fill="#171717" opacity="0.66" d=" M 605.03 135.61 C 606.48 141.09 606.56 147.03 604.93 152.48 C 605.60 146.88 605.76 141.21 605.03 135.61 Z" />
</g>
<g id="#19191980">
<path fill="#191919" opacity="0.50" d=" M 409.08 137.62 C 410.44 142.12 410.42 147.01 409.06 151.51 C 409.30 146.88 409.29 142.24 409.08 137.62 Z" />
</g>
<g id="#151515b3">
<path fill="#151515" opacity="0.70" d=" M 581.11 137.61 C 582.18 140.42 583.55 143.61 582.14 146.56 C 582.09 143.55 581.85 140.54 581.11 137.61 Z" />
</g>
<g id="#1a1a1a59">
<path fill="#1a1a1a" opacity="0.35" d=" M 319.96 150.55 C 318.59 146.68 318.58 142.34 319.99 138.48 C 319.80 142.50 319.80 146.53 319.96 150.55 Z" />
</g>
<g id="#1c1c1c58">
<path fill="#1c1c1c" opacity="0.35" d=" M 526.97 149.66 C 525.68 146.11 525.51 142.11 526.95 138.58 C 526.80 142.27 526.82 145.97 526.97 149.66 Z" />
</g>
<g id="#1616165e">
<path fill="#161616" opacity="0.37" d=" M 385.31 139.63 C 386.32 143.17 386.32 146.94 385.05 150.42 C 385.32 146.83 385.41 143.23 385.31 139.63 Z" />
</g>
<g id="#14141473">
<path fill="#141414" opacity="0.45" d=" M 550.88 146.74 C 549.09 145.96 549.14 140.98 551.04 140.29 C 551.08 142.44 551.03 144.59 550.88 146.74 Z" />
</g>
<g id="#0f0f0f44">
<path fill="#0f0f0f" opacity="0.27" d=" M 553.39 152.64 C 555.10 153.49 556.84 154.63 557.27 156.64 C 555.44 156.96 553.01 154.46 553.39 152.64 Z" />
</g>
<g id="#0f0f0f7a">
<path fill="#0f0f0f" opacity="0.48" d=" M 376.65 162.06 C 378.53 160.34 380.34 158.53 382.07 156.65 C 380.79 158.92 378.93 160.79 376.65 162.06 Z" />
</g>
<g id="#19191970">
<path fill="#191919" opacity="0.44" d=" M 561.47 159.12 C 564.78 159.37 568.12 159.32 571.44 159.01 C 568.25 160.35 564.67 160.40 561.47 159.12 Z" />
</g>
<g id="#15151558">
<path fill="#151515" opacity="0.35" d=" M 359.47 165.19 C 362.78 165.30 366.09 165.34 369.41 165.30 C 366.16 166.26 362.68 166.31 359.47 165.19 Z" />
</g>
<g id="#0d0d0d88">
<path fill="#0d0d0d" opacity="0.53" d=" M 506.77 186.12 C 512.28 180.09 518.13 174.33 524.27 168.94 C 518.71 174.94 512.84 180.64 506.77 186.12 Z" />
</g>
<g id="#15151589">
<path fill="#151515" opacity="0.54" d=" M 146.94 184.28 C 147.37 181.59 148.01 178.95 148.95 176.40 C 148.55 179.09 147.85 181.72 146.94 184.28 Z" />
</g>
<g id="#18181882">
<path fill="#181818" opacity="0.51" d=" M 232.60 179.00 C 237.37 177.49 242.62 177.53 247.41 178.99 C 242.48 178.62 237.53 178.65 232.60 179.00 Z" />
</g>
<g id="#1b1b1b7f">
<path fill="#1b1b1b" opacity="0.50" d=" M 123.25 182.97 C 121.98 182.11 122.40 179.09 124.17 179.34 C 124.26 180.62 123.93 181.88 123.25 182.97 Z" />
</g>
<g id="#0d0d0d83">
<path fill="#0d0d0d" opacity="0.51" d=" M 528.64 198.14 C 533.87 192.48 539.43 187.12 545.14 181.94 C 539.97 187.66 534.46 193.10 528.64 198.14 Z" />
</g>
<g id="#1a1a1a6f">
<path fill="#1a1a1a" opacity="0.44" d=" M 560.36 183.06 C 564.38 183.26 568.41 183.25 572.44 183.02 C 568.55 184.45 564.26 184.37 560.36 183.06 Z" />
</g>
<g id="#18181849">
<path fill="#181818" opacity="0.29" d=" M 123.84 192.79 C 122.18 190.00 121.36 186.51 122.99 183.51 C 122.84 186.62 123.02 189.77 123.84 192.79 Z" />
</g>
<g id="#0f0f0f8d">
<path fill="#0f0f0f" opacity="0.55" d=" M 207.00 194.38 C 208.87 191.42 211.36 188.87 214.38 187.08 C 211.87 189.46 209.40 191.89 207.00 194.38 Z" />
</g>
<g id="#17171751">
<path fill="#171717" opacity="0.32" d=" M 234.36 202.90 C 238.08 201.63 242.11 201.65 245.87 202.82 L 244.98 202.78 C 241.44 202.57 237.89 202.60 234.36 202.90 Z" />
</g>
<g id="#15151567">
<path fill="#151515" opacity="0.40" d=" M 199.33 210.19 C 198.13 208.65 199.02 204.78 201.09 204.77 C 200.70 206.63 200.04 208.42 199.33 210.19 Z" />
</g>
<g id="#18181893">
<path fill="#181818" opacity="0.58" d=" M 198.31 216.04 C 197.19 214.81 197.32 211.40 199.25 211.22 C 199.29 212.88 198.92 214.50 198.31 216.04 Z" />
</g>
<g id="#1515156b">
<path fill="#151515" opacity="0.42" d=" M 589.11 213.36 C 589.67 216.27 589.90 219.23 590.12 222.19 C 589.15 219.34 588.92 216.33 589.11 213.36 Z" />
</g>
<g id="#1717178d">
<path fill="#171717" opacity="0.55" d=" M 612.97 213.44 C 613.99 216.41 614.13 219.58 613.87 222.69 C 613.34 219.63 613.06 216.54 612.97 213.44 Z" />
</g>
<g id="#17171749">
<path fill="#171717" opacity="0.29" d=" M 281.99 214.52 C 283.51 218.31 283.56 222.75 281.99 226.54 C 282.15 222.53 282.14 218.52 281.99 214.52 Z" />
</g>
<g id="#1919199d">
<path fill="#191919" opacity="0.62" d=" M 117.31 217.02 C 122.91 215.44 129.05 215.49 134.64 217.07 C 128.88 216.50 123.07 216.52 117.31 217.02 Z" />
</g>
<g id="#1515158e">
<path fill="#151515" opacity="0.56" d=" M 258.00 215.55 C 259.33 218.75 259.39 222.35 258.02 225.55 C 258.31 222.22 258.32 218.87 258.00 215.55 Z" />
</g>
<g id="#181818ae">
<path fill="#181818" opacity="0.68" d=" M 221.97 223.75 C 220.06 223.01 220.06 218.08 222.02 217.34 C 222.02 219.47 222.01 221.61 221.97 223.75 Z" />
</g>
<g id="#19191957">
<path fill="#191919" opacity="0.34" d=" M 441.96 228.77 C 440.77 225.38 440.43 221.49 441.92 218.14 C 441.86 221.68 441.86 225.23 441.96 228.77 Z" />
</g>
<g id="#1919193f">
<path fill="#191919" opacity="0.25" d=" M 524.01 218.48 C 525.34 221.40 525.56 224.89 524.05 227.79 C 524.10 224.69 524.11 221.58 524.01 218.48 Z" />
</g>
<g id="#191919ba">
<path fill="#191919" opacity="0.73" d=" M 500.00 220.32 C 501.95 220.66 501.97 225.34 500.05 225.73 C 500.02 223.93 500.00 222.12 500.00 220.32 Z" />
</g>
<g id="#181818a1">
<path fill="#181818" opacity="0.63" d=" M 590.15 222.50 C 591.47 231.80 591.47 241.38 590.16 250.69 C 590.04 241.29 590.05 231.89 590.15 222.50 Z" />
</g>
<g id="#0e0e0e97">
<path fill="#0e0e0e" opacity="0.59" d=" M 151.66 225.00 C 154.64 226.89 157.18 229.40 159.04 232.40 C 156.64 229.88 154.19 227.40 151.66 225.00 Z" />
</g>
<g id="#1a1a1aad">
<path fill="#1a1a1a" opacity="0.68" d=" M 198.37 225.09 C 198.94 226.31 199.25 227.64 199.08 229.00 C 197.30 229.04 197.21 225.98 198.37 225.09 Z" />
</g>
<g id="#1818184a">
<path fill="#181818" opacity="0.29" d=" M 614.04 224.32 C 615.43 228.41 614.94 232.76 615.02 236.99 C 615.01 240.90 615.30 244.92 614.05 248.69 C 614.07 240.57 614.09 232.45 614.04 224.32 Z" />
</g>
<g id="#13131373">
<path fill="#131313" opacity="0.45" d=" M 478.58 240.23 C 481.53 240.30 484.49 240.28 487.44 240.15 C 484.57 241.22 481.46 241.28 478.58 240.23 Z" />
</g>
<g id="#171717ab">
<path fill="#171717" opacity="0.67" d=" M 166.97 249.41 C 168.60 255.20 168.56 261.62 166.87 267.40 C 167.69 261.43 167.71 255.38 166.97 249.41 Z" />
</g>
<g id="#0f0f0f7e">
<path fill="#0f0f0f" opacity="0.49" d=" M 281.94 249.70 C 284.60 251.95 286.98 254.51 288.96 257.37 C 286.45 254.98 284.09 252.42 281.94 249.70 Z" />
<path fill="#0f0f0f" opacity="0.49" d=" M 439.01 257.39 C 441.01 254.51 443.41 251.93 446.09 249.68 C 443.91 252.41 441.54 254.98 439.01 257.39 Z" />
</g>
<g id="#1717178b">
<path fill="#171717" opacity="0.55" d=" M 612.88 260.61 C 613.07 257.18 613.31 253.74 613.88 250.35 C 614.11 253.79 614.06 257.32 612.88 260.61 Z" />
</g>
<g id="#17171770">
<path fill="#171717" opacity="0.44" d=" M 589.19 260.76 C 588.84 257.65 589.11 254.50 590.07 251.52 C 589.94 254.61 589.63 257.69 589.19 260.76 Z" />
</g>
<g id="#1a1a1abe">
<path fill="#1a1a1a" opacity="0.75" d=" M 107.95 260.75 C 106.03 260.35 106.07 255.67 108.00 255.29 C 107.99 257.11 107.98 258.93 107.95 260.75 Z" />
</g>
<g id="#16161696">
<path fill="#161616" opacity="0.59" d=" M 611.83 267.74 C 611.54 265.49 611.90 263.26 612.73 261.18 C 613.66 262.98 613.75 266.83 611.83 267.74 Z" />
</g>
<g id="#191919ad">
<path fill="#191919" opacity="0.68" d=" M 233.26 262.22 C 238.35 262.52 243.45 262.35 248.53 262.01 C 243.32 263.59 237.67 263.33 232.39 262.18 L 233.26 262.22 Z" />
</g>
<g id="#0f0f0f8e">
<path fill="#0f0f0f" opacity="0.56" d=" M 292.89 261.68 C 295.21 263.66 297.34 265.88 299.06 268.41 C 296.84 266.31 294.76 264.08 292.89 261.68 Z" />
<path fill="#0f0f0f" opacity="0.56" d=" M 428.95 268.41 C 430.67 265.87 432.80 263.64 435.14 261.65 C 433.25 264.06 431.17 266.31 428.95 268.41 Z" />
<path fill="#0f0f0f" opacity="0.56" d=" M 291.02 294.66 C 293.22 296.75 295.28 298.99 297.15 301.38 C 294.84 299.40 292.73 297.18 291.02 294.66 Z" />
<path fill="#0f0f0f" opacity="0.56" d=" M 430.87 301.35 C 432.74 298.96 434.80 296.73 437.00 294.64 C 435.28 297.15 433.18 299.38 430.87 301.35 Z" />
</g>
<g id="#17171771">
<path fill="#171717" opacity="0.44" d=" M 588.38 267.05 C 587.11 265.93 587.14 262.49 589.11 262.31 C 589.17 263.92 588.90 265.52 588.38 267.05 Z" />
</g>
<g id="#19191986">
<path fill="#191919" opacity="0.53" d=" M 84.34 262.99 C 84.90 264.51 85.26 266.11 85.22 267.75 C 83.28 267.55 83.11 264.16 84.34 262.99 Z" />
</g>
<g id="#18181873">
<path fill="#181818" opacity="0.45" d=" M 476.41 264.04 C 480.80 264.28 485.21 264.28 489.61 264.02 C 485.34 265.39 480.67 265.45 476.41 264.04 Z" />
</g>
<g id="#14141468">
<path fill="#141414" opacity="0.41" d=" M 164.92 273.23 C 165.29 271.37 165.90 269.58 166.69 267.86 C 167.80 269.39 166.99 273.26 164.92 273.23 Z" />
</g>
<g id="#0e0e0e82">
<path fill="#0e0e0e" opacity="0.51" d=" M 269.91 271.59 C 271.71 273.40 273.45 275.27 275.07 277.25 C 273.12 275.59 271.33 273.73 269.91 271.59 Z" />
<path fill="#0e0e0e" opacity="0.51" d=" M 452.91 277.27 C 454.52 275.29 456.27 273.42 458.08 271.61 C 456.65 273.75 454.86 275.61 452.91 277.27 Z" />
</g>
<g id="#0e0e0e8b">
<path fill="#0e0e0e" opacity="0.55" d=" M 303.88 273.68 C 306.18 275.64 308.28 277.84 309.98 280.35 C 307.80 278.26 305.75 276.04 303.88 273.68 Z" />
<path fill="#0e0e0e" opacity="0.55" d=" M 418.02 280.36 C 419.72 277.85 421.82 275.64 424.12 273.68 C 422.24 276.04 420.19 278.26 418.02 280.36 Z" />
<path fill="#0e0e0e" opacity="0.55" d=" M 279.99 282.61 C 282.17 284.71 284.24 286.95 286.13 289.33 C 283.82 287.34 281.71 285.12 279.99 282.61 Z" />
<path fill="#0e0e0e" opacity="0.55" d=" M 441.90 289.30 C 443.77 286.93 445.83 284.71 448.01 282.61 C 446.29 285.12 444.19 287.33 441.90 289.30 Z" />
</g>
<g id="#1414148c">
<path fill="#141414" opacity="0.55" d=" M 585.14 283.56 C 585.35 280.49 586.07 277.48 586.98 274.55 C 586.55 277.59 585.90 280.59 585.14 283.56 Z" />
</g>
<g id="#191919ab">
<path fill="#191919" opacity="0.67" d=" M 123.25 276.03 C 125.07 275.98 126.90 275.98 128.73 276.01 C 128.36 277.91 123.69 277.91 123.25 276.03 Z" />
</g>
<g id="#1313137c">
<path fill="#131313" opacity="0.49" d=" M 582.27 294.66 C 582.88 290.95 583.76 287.28 585.10 283.76 C 584.37 287.45 583.47 291.10 582.27 294.66 Z" />
</g>
<g id="#0e0e0e9f">
<path fill="#0e0e0e" opacity="0.62" d=" M 314.85 285.69 C 316.78 287.36 318.55 289.23 320.01 291.34 C 318.18 289.56 316.45 287.68 314.85 285.69 Z" />
<path fill="#0e0e0e" opacity="0.62" d=" M 407.96 291.37 C 409.44 289.25 411.21 287.36 413.16 285.68 C 411.55 287.68 409.80 289.57 407.96 291.37 Z" />
</g>
<g id="#0f0f0f6e">
<path fill="#0f0f0f" opacity="0.43" d=" M 300.99 305.59 C 303.14 307.69 305.19 309.89 307.08 312.23 C 304.72 310.34 302.64 308.13 300.99 305.59 Z" />
<path fill="#0f0f0f" opacity="0.43" d=" M 420.87 312.28 C 422.77 309.93 424.82 307.72 426.99 305.62 C 425.33 308.16 423.23 310.38 420.87 312.28 Z" />
</g>
<g id="#0e0e0e6f">
<path fill="#0e0e0e" opacity="0.44" d=" M 311.99 317.60 C 314.14 319.71 316.18 321.92 318.09 324.25 C 315.73 322.35 313.67 320.12 311.99 317.60 Z" />
<path fill="#0e0e0e" opacity="0.44" d=" M 409.93 324.23 C 411.82 321.92 413.85 319.72 415.98 317.63 C 414.32 320.14 412.26 322.34 409.93 324.23 Z" />
</g>
<g id="#3737379c">
<path fill="#373737" opacity="0.61" d=" M 351.55 325.50 L 351.74 325.49 L 351.73 325.66 C 351.68 325.62 351.60 325.54 351.55 325.50 Z" />
<path fill="#373737" opacity="0.61" d=" M 376.26 325.49 L 376.44 325.49 C 376.40 325.53 376.32 325.62 376.27 325.66 L 376.26 325.49 Z" />
</g>
<g id="#0e0e0e70">
<path fill="#0e0e0e" opacity="0.44" d=" M 323.04 329.66 C 325.16 331.75 327.18 333.95 329.07 336.25 C 326.76 334.35 324.70 332.15 323.04 329.66 Z" />
<path fill="#0e0e0e" opacity="0.44" d=" M 398.89 336.29 C 400.80 333.96 402.84 331.74 404.99 329.63 C 403.30 332.14 401.23 334.37 398.89 336.29 Z" />
</g>
<g id="#18181874">
<path fill="#181818" opacity="0.45" d=" M 351.56 360.97 L 351.92 361.46 C 352.19 384.62 351.95 407.80 351.60 430.96 C 350.53 456.61 351.29 482.29 350.48 507.95 C 350.29 511.85 350.42 515.78 351.12 519.64 C 349.06 515.74 350.29 511.19 350.00 506.99 C 349.61 481.98 351.08 457.00 351.00 431.99 C 351.02 423.67 350.97 415.35 351.00 407.03 C 351.39 396.12 352.10 385.17 351.35 374.27 C 351.47 369.83 351.74 365.40 351.56 360.97 Z" />
</g>
<g id="#1a1a1a61">
<path fill="#1a1a1a" opacity="0.38" d=" M 375.95 376.57 C 376.27 371.28 375.33 365.87 376.61 360.67 C 377.15 368.42 376.47 376.18 376.09 383.92 C 375.82 400.03 376.06 416.18 375.04 432.28 C 374.89 413.71 374.92 395.12 375.95 376.57 Z" />
</g>
<g id="#101010ce">
<path fill="#101010" opacity="0.81" d=" M 196.80 388.63 C 201.40 393.15 206.10 397.61 210.52 402.32 C 205.30 398.46 200.78 393.73 196.80 388.63 Z" />
</g>
<g id="#111111cd">
<path fill="#111111" opacity="0.80" d=" M 516.46 403.36 C 521.19 398.28 526.27 393.53 531.19 388.63 C 526.87 394.08 522.03 399.18 516.46 403.36 Z" />
</g>
<g id="#1111115e">
<path fill="#111111" opacity="0.37" d=" M 214.51 405.89 C 216.81 407.22 218.75 409.05 220.38 411.13 C 218.30 409.53 216.35 407.77 214.51 405.89 Z" />
</g>
<g id="#12121236">
<path fill="#121212" opacity="0.21" d=" M 509.08 410.12 C 507.97 408.45 510.66 406.13 512.25 407.22 C 511.32 408.32 510.27 409.31 509.08 410.12 Z" />
</g>
<g id="#10101094">
<path fill="#101010" opacity="0.58" d=" M 223.59 414.23 C 225.49 413.72 228.30 416.31 227.99 418.25 C 226.13 417.38 224.67 415.94 223.59 414.23 Z" />
</g>
<g id="#1010105c">
<path fill="#101010" opacity="0.36" d=" M 497.89 420.29 C 499.26 418.00 501.19 416.11 503.53 414.82 C 501.63 416.63 499.74 418.44 497.89 420.29 Z" />
</g>
<g id="#0e0e0e91">
<path fill="#0e0e0e" opacity="0.57" d=" M 531.58 420.97 C 533.75 418.86 535.99 416.83 538.32 414.91 C 536.36 417.22 534.15 419.33 531.58 420.97 Z" />
</g>
<g id="#0e0e0e7f">
<path fill="#0e0e0e" opacity="0.50" d=" M 190.70 415.88 C 192.65 417.52 194.55 419.23 196.41 420.98 C 194.21 419.63 192.34 417.85 190.70 415.88 Z" />
</g>
<g id="#13131380">
<path fill="#131313" opacity="0.50" d=" M 237.83 429.83 C 239.55 429.42 241.56 431.98 240.83 433.60 C 239.56 432.57 238.49 431.32 237.83 429.83 Z" />
</g>
<g id="#191919b1">
<path fill="#191919" opacity="0.69" d=" M 210.01 431.80 C 211.04 432.05 211.81 432.64 212.33 433.59 C 210.61 434.11 209.84 433.52 210.01 431.80 Z" />
</g>
<g id="#191919b6">
<path fill="#191919" opacity="0.71" d=" M 515.69 433.60 C 516.19 432.64 516.96 432.04 518.00 431.81 C 518.16 433.52 517.39 434.12 515.69 433.60 Z" />
</g>
<g id="#14141482">
<path fill="#141414" opacity="0.51" d=" M 484.26 437.59 C 483.55 435.98 485.42 433.30 487.19 433.73 C 486.54 435.24 485.49 436.52 484.26 437.59 Z" />
</g>
<g id="#141414c7">
<path fill="#141414" opacity="0.78" d=" M 213.61 434.79 C 215.86 436.29 217.86 438.13 219.32 440.43 C 217.32 438.65 215.41 436.77 213.61 434.79 Z" />
</g>
<g id="#131313cc">
<path fill="#131313" opacity="0.80" d=" M 508.70 440.45 C 510.14 438.11 512.17 436.24 514.46 434.77 C 512.64 436.76 510.72 438.65 508.70 440.45 Z" />
</g>
<g id="#18181879">
<path fill="#181818" opacity="0.47" d=" M 373.98 507.25 C 373.96 483.35 373.98 459.44 374.95 435.56 C 375.15 459.46 374.96 483.37 373.98 507.25 Z" />
</g>
<g id="#1414147c">
<path fill="#141414" opacity="0.49" d=" M 259.96 476.61 C 261.20 480.48 261.87 484.52 261.94 488.59 C 261.24 484.60 260.53 480.62 259.96 476.61 Z" />
<path fill="#141414" opacity="0.49" d=" M 466.05 488.65 C 466.11 484.56 466.79 480.51 468.03 476.63 C 467.47 480.65 466.75 484.64 466.05 488.65 Z" />
</g>
<g id="#16161671">
<path fill="#161616" opacity="0.44" d=" M 238.37 490.01 C 238.94 491.83 239.19 493.73 239.10 495.65 C 237.05 495.19 237.19 491.41 238.37 490.01 Z" />
<path fill="#161616" opacity="0.44" d=" M 488.89 495.65 C 488.79 493.73 489.06 491.83 489.63 490.01 C 490.78 491.42 490.95 495.23 488.89 495.65 Z" />
</g>
<g id="#1818186f">
<path fill="#181818" opacity="0.44" d=" M 239.13 496.51 C 240.06 503.45 240.10 510.45 239.99 517.45 C 238.76 510.57 239.14 503.47 239.13 496.51 Z" />
<path fill="#181818" opacity="0.44" d=" M 488.01 517.47 C 487.90 510.47 487.94 503.47 488.87 496.53 C 488.87 503.49 489.23 510.59 488.01 517.47 Z" />
</g>
<g id="#19191972">
<path fill="#191919" opacity="0.45" d=" M 263.01 498.55 C 264.04 505.15 265.00 512.24 262.97 518.72 C 263.57 512.00 262.99 505.27 263.01 498.55 Z" />
<path fill="#191919" opacity="0.45" d=" M 465.02 518.67 C 463.00 512.18 463.97 505.08 464.99 498.48 C 465.00 505.21 464.44 511.94 465.02 518.67 Z" />
</g>
<g id="#151515b8">
<path fill="#151515" opacity="0.72" d=" M 372.87 519.34 C 373.18 515.71 373.49 512.08 373.91 508.46 C 374.03 512.10 374.45 515.92 372.87 519.34 Z" />
</g>
<g id="#121212c3">
<path fill="#121212" opacity="0.76" d=" M 242.22 521.69 C 243.81 522.00 244.68 523.44 245.40 524.75 C 243.88 525.35 241.63 523.22 242.22 521.69 Z" />
<path fill="#121212" opacity="0.76" d=" M 482.62 524.71 C 483.32 523.41 484.19 521.98 485.78 521.69 C 486.36 523.21 484.12 525.37 482.62 524.71 Z" />
<path fill="#121212" opacity="0.76" d=" M 234.23 578.68 C 235.73 579.05 236.93 580.24 237.28 581.77 C 235.79 582.24 233.69 580.15 234.23 578.68 Z" />
</g>
<g id="#1d1d1db6">
<path fill="#1d1d1d" opacity="0.71" d=" M 246.37 525.96 C 249.78 526.51 253.26 526.58 256.67 525.97 C 253.45 527.65 249.62 527.44 246.37 525.96 Z" />
<path fill="#1d1d1d" opacity="0.71" d=" M 471.40 526.00 C 474.76 526.57 478.20 526.50 481.57 525.99 C 478.35 527.42 474.59 527.64 471.40 526.00 Z" />
</g>
<g id="#1c1c1c7e">
<path fill="#1c1c1c" opacity="0.49" d=" M 359.22 525.97 C 361.05 525.94 362.90 525.95 364.75 526.02 C 364.29 527.88 359.63 527.85 359.22 525.97 Z" />
</g>
<g id="#16161638">
<path fill="#161616" opacity="0.22" d=" M 241.71 542.69 C 250.84 541.39 260.23 541.84 269.37 542.93 C 260.15 543.10 250.92 543.05 241.71 542.69 Z" />
</g>
<g id="#1818187b">
<path fill="#181818" opacity="0.48" d=" M 273.66 543.06 C 297.84 542.83 322.02 543.07 346.19 543.96 C 322.01 544.10 297.82 543.98 273.66 543.06 Z" />
</g>
<g id="#1818187c">
<path fill="#181818" opacity="0.49" d=" M 349.63 544.07 C 373.46 543.82 397.31 544.08 421.13 544.95 C 397.30 545.12 373.45 544.96 349.63 544.07 Z" />
<path fill="#181818" opacity="0.49" d=" M 384.66 656.04 C 408.88 655.85 433.11 656.08 457.32 656.96 C 433.10 657.10 408.86 657.00 384.66 656.04 Z" />
</g>
<g id="#19191992">
<path fill="#191919" opacity="0.57" d=" M 425.66 545.10 C 444.24 544.95 462.88 544.69 481.42 546.01 C 462.83 545.98 444.22 546.08 425.66 545.10 Z" />
</g>
<g id="#12121261">
<path fill="#121212" opacity="0.38" d=" M 231.02 564.99 C 231.26 560.84 230.55 556.56 231.89 552.55 C 231.79 559.62 232.06 566.69 231.95 573.76 C 230.55 571.05 231.09 567.91 231.02 564.99 Z" />
</g>
<g id="#141414b6">
<path fill="#141414" opacity="0.71" d=" M 490.86 553.56 C 492.46 557.15 491.96 561.13 492.01 564.96 C 491.99 569.13 492.27 573.41 491.03 577.47 C 490.83 569.49 492.36 561.49 490.86 553.56 Z" />
</g>
<g id="#17171782">
<path fill="#171717" opacity="0.51" d=" M 242.46 584.07 C 267.98 583.91 293.51 584.44 319.02 584.97 C 346.35 584.91 373.68 585.08 401.00 585.53 C 421.98 586.33 442.98 585.85 463.97 586.03 C 470.46 586.07 476.97 586.40 483.46 585.89 C 478.54 587.91 473.11 586.68 467.95 587.01 C 451.00 586.48 434.03 586.53 417.07 586.16 C 396.03 585.67 374.98 586.42 353.94 585.67 C 329.63 585.46 305.32 584.79 281.00 585.00 C 268.15 585.04 255.27 585.06 242.46 584.07 Z" />
</g>
<g id="#1717178a">
<path fill="#171717" opacity="0.54" d=" M 237.37 601.91 C 241.66 599.88 246.52 600.87 251.09 600.74 C 271.40 601.38 291.73 600.52 312.04 601.40 C 328.37 601.53 344.71 602.10 361.05 602.00 C 388.71 601.77 416.35 603.16 444.01 603.00 C 455.79 603.31 467.69 602.21 479.38 603.95 C 453.57 604.34 427.79 602.79 401.98 603.00 C 381.95 603.04 361.91 602.84 341.90 602.07 C 314.24 601.93 286.57 602.20 258.93 601.08 C 251.75 601.23 244.45 600.33 237.37 601.91 Z" />
</g>
<g id="#19191997">
<path fill="#191919" opacity="0.59" d=" M 229.99 620.99 C 230.03 617.09 229.63 613.07 231.03 609.34 C 230.98 616.75 230.54 624.17 230.96 631.58 C 229.56 628.21 230.04 624.53 229.99 620.99 Z" />
</g>
<g id="#17171779">
<path fill="#171717" opacity="0.47" d=" M 487.92 611.42 C 490.15 617.64 488.71 624.55 488.12 630.97 L 488.11 629.96 C 487.90 623.77 488.69 617.58 487.92 611.42 Z" />
</g>
<g id="#1313133f">
<path fill="#131313" opacity="0.25" d=" M 232.18 633.64 C 233.25 634.66 234.27 635.73 235.24 636.86 C 233.54 637.94 231.04 635.27 232.18 633.64 Z" />
</g>
<g id="#121212c4">
<path fill="#121212" opacity="0.77" d=" M 482.71 638.75 C 483.04 637.24 484.23 636.04 485.74 635.73 C 486.28 637.19 484.17 639.27 482.71 638.75 Z" />
</g>
<g id="#181818aa">
<path fill="#181818" opacity="0.67" d=" M 240.53 639.05 C 260.36 638.98 280.19 638.92 300.01 639.10 C 312.41 639.11 324.79 640.09 337.19 639.97 C 333.46 639.97 329.74 640.03 326.01 640.05 C 297.52 639.76 268.99 640.52 240.53 639.05 Z" />
</g>
<g id="#17171773">
<path fill="#171717" opacity="0.45" d=" M 326.01 640.05 C 329.74 640.03 333.46 639.97 337.19 639.97 C 361.79 639.94 386.38 640.05 410.98 640.36 C 422.65 640.20 434.34 641.08 445.99 640.26 C 456.74 641.57 467.61 640.80 478.42 640.95 C 473.67 641.89 468.82 641.28 464.02 641.34 C 437.35 640.76 410.68 641.09 384.01 641.00 C 364.68 640.37 345.34 640.58 326.01 640.05 Z" />
</g>
<g id="#1919196c">
<path fill="#191919" opacity="0.42" d=" M 243.38 654.09 C 264.03 653.83 284.69 654.08 305.33 654.94 C 291.56 655.04 277.78 655.13 264.02 654.71 C 257.14 654.48 250.23 654.87 243.38 654.09 Z" />
</g>
<g id="#1818187d">
<path fill="#181818" opacity="0.49" d=" M 309.67 655.06 C 333.23 654.81 356.80 655.10 380.35 655.93 C 356.79 656.13 333.21 655.97 309.67 655.06 Z" />
</g>
<g id="#191919bf">
<path fill="#191919" opacity="0.75" d=" M 460.47 657.08 C 467.19 657.26 474.07 656.22 480.67 657.89 C 473.92 658.10 467.15 658.15 460.47 657.08 Z" />
</g>
<g id="#15151556">
<path fill="#151515" opacity="0.34" d=" M 489.12 667.40 C 490.54 673.08 490.16 679.01 489.22 684.73 C 488.85 678.96 489.27 673.18 489.12 667.40 Z" />
</g>
<g id="#121212d1">
<path fill="#121212" opacity="0.82" d=" M 229.09 668.58 C 229.96 674.83 229.76 681.15 230.05 687.45 C 228.10 681.36 229.27 674.85 229.09 668.58 Z" />
</g>
<g id="#111111bd">
<path fill="#111111" opacity="0.74" d=" M 230.97 689.78 C 233.26 689.97 235.04 691.74 235.22 694.05 C 233.28 693.29 231.70 691.73 230.97 689.78 Z" />
</g>
<g id="#181818b9">
<path fill="#181818" opacity="0.73" d=" M 237.58 695.01 C 244.23 694.97 250.90 694.88 257.49 695.93 C 250.87 695.67 244.04 696.89 237.58 695.01 Z" />
</g>
<g id="#18181878">
<path fill="#181818" opacity="0.47" d=" M 260.69 696.04 C 282.11 695.95 303.53 695.91 324.95 696.29 C 336.10 696.52 347.27 696.28 358.41 696.95 C 325.83 697.16 293.26 696.90 260.69 696.04 Z" />
</g>
<g id="#1b1b1b3e">
<path fill="#1b1b1b" opacity="0.24" d=" M 462.71 697.98 C 469.63 697.60 476.98 699.20 483.51 696.17 C 481.77 697.29 479.89 698.18 478.00 699.00 L 462.79 699.00 L 462.71 697.98 Z" />
</g>
<g id="#18181877">
<path fill="#181818" opacity="0.47" d=" M 361.77 697.03 C 382.85 696.95 403.94 696.91 425.03 697.29 C 436.48 697.53 447.95 697.28 459.40 697.94 C 426.85 698.19 394.30 697.89 361.77 697.03 Z" />
</g>
</svg>
