<svg xmlns="http://www.w3.org/2000/svg" width="300" height="300" viewBox="0 0 600 600" version="1.1">
<g id="#29973eff">
<path fill="#29973e" opacity="1.00" d=" M 188.60 3.33 C 189.36 3.35 190.13 3.37 190.90 3.39 C 194.47 18.02 199.10 32.38 202.91 46.96 C 208.55 65.54 213.57 84.30 218.92 102.97 C 219.72 105.29 220.40 107.64 220.95 110.03 C 223.76 120.74 227.40 131.23 229.92 142.01 C 241.49 180.98 252.20 220.22 263.52 259.26 C 264.47 263.45 266.22 267.44 266.68 271.75 C 267.31 271.82 268.55 271.97 269.17 272.04 C 292.16 208.34 315.40 144.71 338.48 81.03 C 338.97 79.63 339.57 78.28 340.21 76.95 C 340.33 76.44 340.58 75.44 340.70 74.94 C 342.28 81.25 345.57 87.10 346.60 93.51 C 346.80 93.50 347.20 93.49 347.40 93.49 C 357.33 122.03 368.13 150.29 378.10 178.83 C 378.74 182.34 379.72 185.78 381.09 189.08 C 383.73 195.65 385.76 202.44 388.60 208.93 C 388.78 208.74 389.15 208.35 389.34 208.15 C 389.65 207.72 390.28 206.85 390.60 206.42 C 392.19 201.32 393.39 196.10 395.08 191.03 C 400.74 169.74 407.17 148.64 412.85 127.35 C 413.36 127.39 414.37 127.47 414.88 127.50 C 429.62 180.06 444.62 232.56 459.39 285.09 C 462.32 296.49 466.20 307.64 468.87 319.11 C 469.40 320.47 469.93 321.84 470.38 323.24 C 469.47 325.40 466.88 324.84 465.02 325.03 C 454.01 324.96 443.00 324.97 431.98 325.04 C 430.08 325.02 428.15 324.99 426.29 324.57 C 414.09 286.64 402.01 248.61 389.42 210.78 C 382.22 230.41 376.94 250.72 369.51 270.26 C 359.87 242.46 350.14 214.69 340.52 186.89 C 336.29 196.88 333.39 207.39 329.57 217.55 C 317.32 253.41 304.64 289.13 292.50 325.03 C 290.60 324.85 288.45 325.28 286.74 324.32 C 285.12 321.04 284.35 317.42 282.86 314.09 C 277.45 301.20 273.52 287.71 267.53 275.06 C 262.05 290.32 256.05 305.38 250.57 320.64 C 249.69 322.20 249.48 325.07 247.13 324.89 C 240.06 325.21 232.96 324.97 225.88 324.94 C 218.81 302.65 212.18 280.23 205.28 257.88 C 201.61 246.70 198.20 235.43 194.85 224.14 C 193.18 218.67 192.00 213.01 189.55 207.81 C 177.44 246.82 165.73 285.96 153.65 324.99 C 151.23 324.97 148.82 324.89 146.40 324.80 C 138.62 296.06 130.32 267.47 122.31 238.80 C 120.48 241.93 119.82 245.52 118.94 249.00 C 111.64 274.18 104.85 299.50 97.42 324.64 C 95.29 324.84 93.16 325.05 91.03 325.07 C 69.00 324.84 46.96 325.11 24.93 324.97 C 17.06 324.98 9.19 324.94 1.33 325.25 C 3.51 314.66 7.32 304.46 10.09 294.02 C 11.84 288.37 13.10 282.58 15.13 277.02 C 21.00 256.30 27.30 235.74 33.06 214.99 C 35.11 208.39 36.86 201.71 39.16 195.19 C 40.81 186.65 44.26 178.59 46.17 170.11 C 54.43 142.32 62.45 114.47 70.61 86.65 C 71.85 83.15 72.07 79.28 74.19 76.12 C 85.19 113.71 96.17 151.31 107.12 188.92 C 107.96 195.79 110.43 202.28 112.31 208.91 C 115.55 218.46 117.07 228.58 121.19 237.84 C 123.90 235.55 124.38 231.89 125.48 228.71 C 126.35 226.12 126.64 223.40 126.94 220.70 C 143.08 164.14 159.22 107.57 175.27 50.98 C 179.63 35.08 184.74 19.35 188.60 3.33 M 188.71 22.68 C 185.51 23.47 184.06 27.06 184.38 30.08 C 184.90 38.08 181.11 45.39 179.17 52.95 C 165.42 103.67 151.27 154.24 137.29 204.89 C 142.06 205.30 146.87 205.28 151.64 205.70 C 154.53 197.84 156.07 189.59 158.58 181.61 C 167.15 150.51 175.85 119.45 184.41 88.35 C 188.54 74.31 191.88 60.04 196.30 46.10 C 199.61 39.99 197.07 33.01 195.14 26.89 C 194.52 24.14 191.62 21.45 188.71 22.68 M 336.08 95.04 C 335.03 97.18 335.31 99.67 335.06 101.98 C 334.67 102.37 333.88 103.15 333.48 103.53 C 332.87 110.79 329.08 117.19 327.14 124.11 C 313.44 161.02 300.57 198.23 286.87 235.15 C 291.86 235.24 297.00 235.93 301.91 234.92 C 316.92 195.26 330.47 155.02 345.51 115.36 C 346.61 112.31 348.77 109.33 348.06 105.93 C 347.44 102.99 346.39 100.16 345.56 97.28 C 344.79 93.22 338.46 91.44 336.08 95.04 M 70.21 95.11 C 68.66 100.04 67.75 105.16 65.99 110.03 C 64.25 114.49 65.22 119.41 63.81 123.94 C 62.52 128.29 61.46 132.69 60.22 137.05 C 56.14 148.97 53.00 161.18 49.44 173.25 C 36.25 218.19 23.27 263.17 10.06 308.11 C 8.98 312.15 7.15 316.09 7.30 320.36 C 11.61 320.98 15.65 322.88 19.99 323.29 C 22.65 320.18 22.96 315.73 24.12 311.92 C 43.50 246.00 62.55 179.98 82.04 114.09 C 82.22 109.55 80.28 105.32 79.29 100.96 C 78.82 98.37 77.31 96.20 75.78 94.13 C 73.89 94.20 72.01 94.48 70.21 95.11 M 412.24 143.19 C 410.82 144.93 409.29 146.72 408.90 149.01 C 407.43 155.71 408.67 162.65 407.48 169.38 C 403.79 183.19 399.60 196.88 396.10 210.74 C 400.23 210.79 404.37 210.78 408.50 210.69 C 411.31 202.79 412.86 194.53 415.49 186.58 C 417.00 180.12 419.47 173.88 420.41 167.30 C 420.72 160.09 419.81 152.69 416.98 146.01 C 416.31 143.94 413.99 143.78 412.24 143.19 Z"/>
</g>
<g id="#4eb438ff">
<path fill="#4eb438" opacity="1.00" d=" M 188.71 22.68 C 191.62 21.45 194.52 24.14 195.14 26.89 C 197.07 33.01 199.61 39.99 196.30 46.10 C 191.88 60.04 188.54 74.31 184.41 88.35 C 175.85 119.45 167.15 150.51 158.58 181.61 C 156.07 189.59 154.53 197.84 151.64 205.70 C 146.87 205.28 142.06 205.30 137.29 204.89 C 151.27 154.24 165.42 103.67 179.17 52.95 C 181.11 45.39 184.90 38.08 184.38 30.08 C 184.06 27.06 185.51 23.47 188.71 22.68 Z"/>
<path fill="#4eb438" opacity="1.00" d=" M 336.08 95.04 C 338.46 91.44 344.79 93.22 345.56 97.28 C 346.39 100.16 347.44 102.99 348.06 105.93 C 348.77 109.33 346.61 112.31 345.51 115.36 C 330.47 155.02 316.92 195.26 301.91 234.92 C 297.00 235.93 291.86 235.24 286.87 235.15 C 300.57 198.23 313.44 161.02 327.14 124.11 C 329.08 117.19 332.87 110.79 333.48 103.53 C 333.88 103.15 334.67 102.37 335.06 101.98 C 335.31 99.67 335.03 97.18 336.08 95.04 Z"/>
<path fill="#4eb438" opacity="1.00" d=" M 70.21 95.11 C 72.01 94.48 73.89 94.20 75.78 94.13 C 77.31 96.20 78.82 98.37 79.29 100.96 C 80.28 105.32 82.22 109.55 82.04 114.09 C 62.55 179.98 43.50 246.00 24.12 311.92 C 22.96 315.73 22.65 320.18 19.99 323.29 C 15.65 322.88 11.61 320.98 7.30 320.36 C 7.15 316.09 8.98 312.15 10.06 308.11 C 23.27 263.17 36.25 218.19 49.44 173.25 C 53.00 161.18 56.14 148.97 60.22 137.05 C 61.46 132.69 62.52 128.29 63.81 123.94 C 65.22 119.41 64.25 114.49 65.99 110.03 C 67.75 105.16 68.66 100.04 70.21 95.11 Z"/>
<path fill="#4eb438" opacity="1.00" d=" M 412.24 143.19 C 413.99 143.78 416.31 143.94 416.98 146.01 C 419.81 152.69 420.72 160.09 420.41 167.30 C 419.47 173.88 417.00 180.12 415.49 186.58 C 412.86 194.53 411.31 202.79 408.50 210.69 C 404.37 210.78 400.23 210.79 396.10 210.74 C 399.60 196.88 403.79 183.19 407.48 169.38 C 408.67 162.65 407.43 155.71 408.90 149.01 C 409.29 146.72 410.82 144.93 412.24 143.19 Z"/>
</g>
<g id="#236537ff">
<path fill="#236537" opacity="1.00" d=" M 378.10 178.83 C 382.31 188.41 384.75 198.75 389.34 208.15 C 389.15 208.35 388.78 208.74 388.60 208.93 C 385.76 202.44 383.73 195.65 381.09 189.08 C 379.72 185.78 378.74 182.34 378.10 178.83 Z"/>
<path fill="#236537" opacity="1.00" d=" M 107.12 188.92 C 111.86 204.59 116.42 220.32 120.90 236.06 C 121.46 235.84 122.59 235.41 123.16 235.19 C 123.67 230.18 125.81 225.57 126.94 220.70 C 126.64 223.40 126.35 226.12 125.48 228.71 C 124.38 231.89 123.90 235.55 121.19 237.84 C 117.07 228.58 115.55 218.46 112.31 208.91 C 110.43 202.28 107.96 195.79 107.12 188.92 Z"/>
<path fill="#236537" opacity="1.00" d=" M 369.51 270.26 C 376.94 250.72 382.22 230.41 389.42 210.78 C 402.01 248.61 414.09 286.64 426.29 324.57 C 428.15 324.99 430.08 325.02 431.98 325.04 C 443.00 324.97 454.01 324.96 465.02 325.03 C 466.88 324.84 469.47 325.40 470.38 323.24 C 471.73 328.76 470.33 334.42 470.76 340.02 C 465.20 419.15 418.05 493.33 350.32 534.08 C 303.28 563.03 244.97 572.54 191.07 561.00 C 153.19 553.47 117.52 535.81 88.22 510.72 C 47.13 475.90 17.57 427.54 6.00 374.88 C 3.50 362.95 1.28 350.86 1.08 338.66 C 0.18 334.26 0.38 329.76 0.24 325.30 C 0.51 325.28 1.05 325.26 1.33 325.25 C 9.19 324.94 17.06 324.98 24.93 324.97 C 46.96 325.11 69.00 324.84 91.03 325.07 C 93.16 325.05 95.29 324.84 97.42 324.64 C 104.85 299.50 111.64 274.18 118.94 249.00 C 119.82 245.52 120.48 241.93 122.31 238.80 C 130.32 267.47 138.62 296.06 146.40 324.80 C 148.82 324.89 151.23 324.97 153.65 324.99 C 157.94 325.00 162.24 325.02 166.53 324.94 C 171.09 324.84 175.65 324.89 180.21 324.91 C 195.44 325.03 210.66 325.02 225.88 324.94 C 232.96 324.97 240.06 325.21 247.13 324.89 C 249.48 325.07 249.69 322.20 250.57 320.64 C 256.05 305.38 262.05 290.32 267.53 275.06 C 273.52 287.71 277.45 301.20 282.86 314.09 C 284.35 317.42 285.12 321.04 286.74 324.32 C 288.45 325.28 290.60 324.85 292.50 325.03 C 296.95 324.99 301.40 325.01 305.86 324.97 C 310.56 324.93 315.26 324.96 319.97 324.98 C 342.76 324.95 365.56 325.15 388.35 324.88 C 382.16 306.64 375.73 288.49 369.51 270.26 Z"/>
</g>
</svg>